<svg width="30" height="30" viewBox="0 0 30 30" fill="none" xmlns="http://www.w3.org/2000/svg">
<path d="M11.9571 16.7929C11.5666 16.4024 10.9334 16.4024 10.5429 16.7929C10.1524 17.1834 10.1524 17.8166 10.5429 18.2071L11.9571 16.7929ZM13.75 20L13.0429 20.7071C13.4334 21.0976 14.0666 21.0976 14.4571 20.7071L13.75 20ZM19.4571 15.7071C19.8476 15.3166 19.8476 14.6834 19.4571 14.2929C19.0666 13.9024 18.4334 13.9024 18.0429 14.2929L19.4571 15.7071ZM22.75 8.75V23.75H24.75V8.75H22.75ZM21.25 25.25H8.75V27.25H21.25V25.25ZM7.25 23.75V8.75H5.25V23.75H7.25ZM8.75 7.25H11.25V5.25H8.75V7.25ZM18.75 7.25H21.25V5.25H18.75V7.25ZM8.75 25.25C7.92157 25.25 7.25 24.5784 7.25 23.75H5.25C5.25 25.683 6.817 27.25 8.75 27.25V25.25ZM22.75 23.75C22.75 24.5784 22.0784 25.25 21.25 25.25V27.25C23.183 27.25 24.75 25.683 24.75 23.75H22.75ZM24.75 8.75C24.75 6.817 23.183 5.25 21.25 5.25V7.25C22.0784 7.25 22.75 7.92157 22.75 8.75H24.75ZM7.25 8.75C7.25 7.92157 7.92157 7.25 8.75 7.25V5.25C6.817 5.25 5.25 6.817 5.25 8.75H7.25ZM10.5429 18.2071L13.0429 20.7071L14.4571 19.2929L11.9571 16.7929L10.5429 18.2071ZM14.4571 20.7071L19.4571 15.7071L18.0429 14.2929L13.0429 19.2929L14.4571 20.7071ZM13.75 4.75H16.25V2.75H13.75V4.75ZM16.25 7.75H13.75V9.75H16.25V7.75ZM13.75 7.75C12.9216 7.75 12.25 7.07843 12.25 6.25H10.25C10.25 8.183 11.817 9.75 13.75 9.75V7.75ZM17.75 6.25C17.75 7.07843 17.0784 7.75 16.25 7.75V9.75C18.183 9.75 19.75 8.183 19.75 6.25H17.75ZM16.25 4.75C17.0784 4.75 17.75 5.42157 17.75 6.25H19.75C19.75 4.317 18.183 2.75 16.25 2.75V4.75ZM13.75 2.75C11.817 2.75 10.25 4.317 10.25 6.25H12.25C12.25 5.42157 12.9216 4.75 13.75 4.75V2.75Z" fill="#74B805"/>
</svg>
