<svg width="21" height="21" viewBox="0 0 21 21" fill="none" xmlns="http://www.w3.org/2000/svg">
<path d="M8.72222 8.80871H1C0.861928 8.80871 0.75 8.69678 0.75 8.55871V1C0.75 0.861928 0.861929 0.75 0.999999 0.75H8.72222C8.86029 0.75 8.97222 0.861929 8.97222 0.999999V8.55871C8.97222 8.69678 8.86029 8.80871 8.72222 8.80871ZM8.72222 20.25H1C0.861928 20.25 0.75 20.1381 0.75 20V12.2778C0.75 12.1397 0.861929 12.0278 0.999999 12.0278H8.72222C8.86029 12.0278 8.97222 12.1397 8.97222 12.2778V20C8.97222 20.1381 8.86029 20.25 8.72222 20.25ZM20 20.25H12.6667C12.5286 20.25 12.4167 20.1381 12.4167 20V12.2778C12.4167 12.1397 12.5286 12.0278 12.6667 12.0278H20C20.1381 12.0278 20.25 12.1397 20.25 12.2778V20C20.25 20.1381 20.1381 20.25 20 20.25ZM12.4167 8.55871V1C12.4167 0.861928 12.5286 0.75 12.6667 0.75H20C20.1381 0.75 20.25 0.861929 20.25 0.999999V8.55871C20.25 8.69678 20.1381 8.80871 20 8.80871H12.6667C12.5286 8.80871 12.4167 8.69678 12.4167 8.55871Z" stroke="#18181B" stroke-width="1.5"/>
</svg>
