<svg width="41" height="41" viewBox="0 0 41 41" fill="none" xmlns="http://www.w3.org/2000/svg">
<rect x="1" y="1" width="39" height="39" rx="4" stroke="#74B805" stroke-width="2"/>
<g clip-path="url(#clip0_641_324)">
<path d="M20.0755 11.337C20.3748 10.4158 21.6782 10.4158 21.9776 11.337L23.6346 16.4362C23.7685 16.8481 24.1524 17.1271 24.5856 17.1271L29.9472 17.1273C30.9159 17.1273 31.3186 18.3669 30.535 18.9363L26.1975 22.0879C25.847 22.3426 25.7004 22.7939 25.8342 23.2059L27.4908 28.3051C27.7901 29.2264 26.7357 29.9925 25.952 29.4232L21.6143 26.2719C21.2638 26.0172 20.7892 26.0172 20.4388 26.2719L16.101 29.4232C15.3173 29.9925 14.2629 29.2264 14.5622 28.3051L16.2188 23.2059C16.3527 22.7939 16.206 22.3426 15.8556 22.0879L11.5181 18.9363C10.7344 18.3669 11.1372 17.1273 12.1059 17.1273L17.4675 17.1271C17.9006 17.1271 18.2846 16.8481 18.4185 16.4362L20.0755 11.337Z" stroke="#74B805" stroke-width="2"/>
</g>
<defs>
<clipPath id="clip0_641_324">
<rect width="25.2308" height="25.2308" fill="white" transform="translate(8.41113 8.4104)"/>
</clipPath>
</defs>
</svg>
