<svg width="39" height="39" viewBox="0 0 39 39" fill="none" xmlns="http://www.w3.org/2000/svg">
<rect x="0.5" y="0.5" width="38" height="38" rx="7.5" stroke="#D2D2D2"/>
<path d="M23.75 26.25H30L28.2438 24.4938C27.7676 24.0176 27.5 23.3716 27.5 22.6981V18.75C27.5 15.4845 25.413 12.7064 22.5 11.6768V11.25C22.5 9.86929 21.3807 8.75 20 8.75C18.6193 8.75 17.5 9.86929 17.5 11.25V11.6768C14.587 12.7064 12.5 15.4845 12.5 18.75V22.6981C12.5 23.3716 12.2324 24.0176 11.7562 24.4938L10 26.25H16.25M23.75 26.25V27.5C23.75 29.5711 22.0711 31.25 20 31.25C17.9289 31.25 16.25 29.5711 16.25 27.5V26.25M23.75 26.25H16.25" stroke="#18181B" stroke-width="1.5" stroke-linecap="round" stroke-linejoin="round"/>
</svg>
