<svg width="38" height="38" viewBox="0 0 38 38" fill="none" xmlns="http://www.w3.org/2000/svg">
<path d="M26.9167 26.9167H30.0833C31.8322 26.9167 33.25 25.4989 33.25 23.75V17.4167C33.25 15.6678 31.8322 14.25 30.0833 14.25H7.91667C6.16777 14.25 4.75 15.6678 4.75 17.4167V23.75C4.75 25.4989 6.16777 26.9167 7.91667 26.9167H11.0833M14.25 33.25H23.75C25.4989 33.25 26.9167 31.8322 26.9167 30.0833V23.75C26.9167 22.0011 25.4989 20.5833 23.75 20.5833H14.25C12.5011 20.5833 11.0833 22.0011 11.0833 23.75V30.0833C11.0833 31.8322 12.5011 33.25 14.25 33.25ZM26.9167 14.25V7.91667C26.9167 6.16777 25.4989 4.75 23.75 4.75H14.25C12.5011 4.75 11.0833 6.16776 11.0833 7.91667V14.25H26.9167Z" stroke="#74B805" stroke-width="2.5" stroke-linecap="round" stroke-linejoin="round"/>
</svg>
