<svg width="94" height="35" viewBox="0 0 94 35" fill="none" xmlns="http://www.w3.org/2000/svg">
<rect x="59.5" y="0.5" width="34" height="34" rx="17" fill="white" stroke="#D2D2D2"/>
<rect x="66.1797" y="7.17944" width="21.5385" height="21.5385" rx="10.7692" fill="white"/>
<rect x="29.5" y="0.5" width="34" height="34" rx="17" fill="white" stroke="#D2D2D2"/>
<rect x="36.1797" y="7.17944" width="21.5385" height="21.5385" rx="10.7692" fill="white"/>
<rect x="29.5" y="0.5" width="34" height="34" rx="17" fill="white" stroke="#D2D2D2"/>
<rect x="36.1797" y="7.17944" width="21.5385" height="21.5385" rx="10.7692" fill="white"/>
<rect x="0.5" y="0.5" width="34" height="34" rx="17" fill="white" stroke="#D2D2D2"/>
<rect x="7.17969" y="7.17944" width="21.5385" height="21.5385" rx="10.7692" fill="white"/>
<rect width="20" height="20" transform="translate(7.17969 7.17944)" fill="white"/>
<path d="M18.1799 10.5127C18.1799 9.96041 17.7321 9.5127 17.1799 9.5127C16.6276 9.5127 16.1799 9.96041 16.1799 10.5127H18.1799ZM16.1799 11.346C16.1799 11.8983 16.6276 12.346 17.1799 12.346C17.7321 12.346 18.1799 11.8983 18.1799 11.346H16.1799ZM22.1798 19.5127C21.6276 19.5127 21.1798 19.9604 21.1798 20.5127C21.1798 21.065 21.6276 21.5127 22.1798 21.5127V19.5127ZM23.8465 21.5127C24.3988 21.5127 24.8465 21.065 24.8465 20.5127C24.8465 19.9604 24.3988 19.5127 23.8465 19.5127V21.5127ZM17.1799 20.5127V19.5127C16.6276 19.5127 16.1799 19.9604 16.1799 20.5127H17.1799ZM18.8465 21.5127C19.3988 21.5127 19.8465 21.065 19.8465 20.5127C19.8465 19.9604 19.3988 19.5127 18.8465 19.5127V21.5127ZM16.1799 23.846C16.1799 24.3983 16.6276 24.846 17.1799 24.846C17.7321 24.846 18.1799 24.3983 18.1799 23.846H16.1799ZM18.1799 14.6794C18.1799 14.1271 17.7321 13.6794 17.1799 13.6794C16.6276 13.6794 16.1799 14.1271 16.1799 14.6794H18.1799ZM17.1799 17.1794H16.1799C16.1799 17.7316 16.6276 18.1794 17.1799 18.1794V17.1794ZM20.5132 22.846C19.9609 22.846 19.5132 23.2937 19.5132 23.846C19.5132 24.3983 19.9609 24.846 20.5132 24.846V22.846ZM23.8465 24.846C24.3988 24.846 24.8465 24.3983 24.8465 23.846C24.8465 23.2937 24.3988 22.846 23.8465 22.846V24.846ZM10.5132 16.1794C9.9609 16.1794 9.51318 16.6271 9.51318 17.1794C9.51318 17.7316 9.9609 18.1794 10.5132 18.1794V16.1794ZM13.8465 18.1794C14.3988 18.1794 14.8465 17.7316 14.8465 17.1794C14.8465 16.6271 14.3988 16.1794 13.8465 16.1794V18.1794ZM17.1882 18.1794C17.7405 18.1794 18.1882 17.7316 18.1882 17.1794C18.1882 16.6271 17.7405 16.1794 17.1882 16.1794V18.1794ZM20.5215 18.1794C21.0738 18.1794 21.5215 17.7316 21.5215 17.1794C21.5215 16.6271 21.0738 16.1794 20.5215 16.1794V18.1794ZM23.8465 16.1794C23.2942 16.1794 22.8465 16.6271 22.8465 17.1794C22.8465 17.7316 23.2942 18.1794 23.8465 18.1794V16.1794ZM23.8549 18.1794C24.4071 18.1794 24.8549 17.7316 24.8549 17.1794C24.8549 16.6271 24.4071 16.1794 23.8549 16.1794V18.1794ZM11.3465 11.5127H13.0132V9.5127H11.3465V11.5127ZM12.8465 11.346V13.0127H14.8465V11.346H12.8465ZM13.0132 12.846H11.3465V14.846H13.0132V12.846ZM11.5132 13.0127V11.346H9.51318V13.0127H11.5132ZM11.3465 12.846C11.4386 12.846 11.5132 12.9206 11.5132 13.0127H9.51318C9.51318 14.0252 10.334 14.846 11.3465 14.846V12.846ZM12.8465 13.0127C12.8465 12.9206 12.9211 12.846 13.0132 12.846V14.846C14.0257 14.846 14.8465 14.0252 14.8465 13.0127H12.8465ZM13.0132 11.5127C12.9211 11.5127 12.8465 11.4381 12.8465 11.346H14.8465C14.8465 10.3335 14.0257 9.5127 13.0132 9.5127V11.5127ZM11.3465 9.5127C10.334 9.5127 9.51318 10.3335 9.51318 11.346H11.5132C11.5132 11.4381 11.4386 11.5127 11.3465 11.5127V9.5127ZM21.3465 11.5127H23.0132V9.5127H21.3465V11.5127ZM22.8465 11.346V13.0127H24.8465V11.346H22.8465ZM23.0132 12.846H21.3465V14.846H23.0132V12.846ZM21.5132 13.0127V11.346H19.5132V13.0127H21.5132ZM21.3465 12.846C21.4386 12.846 21.5132 12.9206 21.5132 13.0127H19.5132C19.5132 14.0252 20.334 14.846 21.3465 14.846V12.846ZM22.8465 13.0127C22.8465 12.9206 22.9211 12.846 23.0132 12.846V14.846C24.0257 14.846 24.8465 14.0252 24.8465 13.0127H22.8465ZM23.0132 11.5127C22.9211 11.5127 22.8465 11.4381 22.8465 11.346H24.8465C24.8465 10.3335 24.0257 9.5127 23.0132 9.5127V11.5127ZM21.3465 9.5127C20.334 9.5127 19.5132 10.3335 19.5132 11.346H21.5132C21.5132 11.4381 21.4386 11.5127 21.3465 11.5127V9.5127ZM11.3465 21.5127H13.0132V19.5127H11.3465V21.5127ZM12.8465 21.346V23.0127H14.8465V21.346H12.8465ZM13.0132 22.846H11.3465V24.846H13.0132V22.846ZM11.5132 23.0127V21.346H9.51318V23.0127H11.5132ZM11.3465 22.846C11.4386 22.846 11.5132 22.9206 11.5132 23.0127H9.51318C9.51318 24.0252 10.334 24.846 11.3465 24.846V22.846ZM12.8465 23.0127C12.8465 22.9206 12.9211 22.846 13.0132 22.846V24.846C14.0257 24.846 14.8465 24.0252 14.8465 23.0127H12.8465ZM13.0132 21.5127C12.9211 21.5127 12.8465 21.4381 12.8465 21.346H14.8465C14.8465 20.3335 14.0257 19.5127 13.0132 19.5127V21.5127ZM11.3465 19.5127C10.334 19.5127 9.51318 20.3335 9.51318 21.346H11.5132C11.5132 21.4381 11.4386 21.5127 11.3465 21.5127V19.5127ZM16.1799 10.5127V11.346H18.1799V10.5127H16.1799ZM22.1798 21.5127H23.8465V19.5127H22.1798V21.5127ZM17.1799 21.5127H18.8465V19.5127H17.1799V21.5127ZM16.1799 20.5127V23.846H18.1799V20.5127H16.1799ZM16.1799 14.6794V17.1794H18.1799V14.6794H16.1799ZM20.5132 24.846H23.8465V22.846H20.5132V24.846ZM10.5132 18.1794H13.8465V16.1794H10.5132V18.1794ZM17.1799 18.1794H17.1882V16.1794H17.1799V18.1794ZM23.8465 18.1794H23.8549V16.1794H23.8465V18.1794ZM17.1799 18.1794H20.5215V16.1794H17.1799V18.1794Z" fill="black"/>
<path d="M44.4998 18H49.4998M44.4998 21.3333H49.4998M51.1665 25.5H42.8332C41.9127 25.5 41.1665 24.7538 41.1665 23.8333V12.1667C41.1665 11.2462 41.9127 10.5 42.8332 10.5H47.488C47.709 10.5 47.921 10.5878 48.0772 10.7441L52.5891 15.2559C52.7454 15.4122 52.8332 15.6242 52.8332 15.8452V23.8333C52.8332 24.7538 52.087 25.5 51.1665 25.5Z" stroke="black" stroke-width="2" stroke-linecap="round" stroke-linejoin="round"/>
<path d="M76 12.2107V23.0441M76 12.2107C75.0268 11.5641 73.7054 11.1667 72.25 11.1667C70.7946 11.1667 69.4732 11.5641 68.5 12.2107V23.0441C69.4732 22.3975 70.7946 22.0001 72.25 22.0001C73.7054 22.0001 75.0268 22.3975 76 23.0441M76 12.2107C76.9732 11.5641 78.2946 11.1667 79.75 11.1667C81.2054 11.1667 82.5268 11.5641 83.5 12.2107V23.0441C82.5268 22.3975 81.2054 22.0001 79.75 22.0001C78.2946 22.0001 76.9732 22.3975 76 23.0441" stroke="black" stroke-width="2" stroke-linecap="round" stroke-linejoin="round"/>
</svg>
