<svg width="39" height="39" viewBox="0 0 39 39" fill="none" xmlns="http://www.w3.org/2000/svg">
<rect x="0.5" y="0.5" width="38" height="38" rx="7.5" stroke="#D2D2D2"/>
<path d="M18.3246 12.3173C18.751 10.5609 21.249 10.5609 21.6754 12.3173C21.9508 13.4519 23.2507 13.9904 24.2478 13.3828C25.7913 12.4424 27.5576 14.2087 26.6172 15.7522C26.0096 16.7493 26.5481 18.0492 27.6827 18.3246C29.4391 18.751 29.4391 21.249 27.6827 21.6754C26.5481 21.9508 26.0096 23.2507 26.6172 24.2478C27.5576 25.7913 25.7913 27.5576 24.2478 26.6172C23.2507 26.0096 21.9508 26.5481 21.6754 27.6827C21.249 29.4391 18.751 29.4391 18.3246 27.6827C18.0492 26.5481 16.7493 26.0096 15.7522 26.6172C14.2087 27.5576 12.4424 25.7913 13.3829 24.2478C13.9904 23.2507 13.4519 21.9508 12.3173 21.6754C10.5609 21.249 10.5609 18.751 12.3173 18.3246C13.4519 18.0492 13.9904 16.7493 13.3828 15.7522C12.4424 14.2087 14.2087 12.4424 15.7522 13.3828C16.7493 13.9904 18.0492 13.4519 18.3246 12.3173Z" stroke="#27272A" stroke-width="1.75" stroke-linecap="round" stroke-linejoin="round"/>
<path d="M23 20C23 21.6569 21.6569 23 20 23C18.3431 23 17 21.6569 17 20C17 18.3431 18.3431 17 20 17C21.6569 17 23 18.3431 23 20Z" stroke="#27272A" stroke-width="1.75" stroke-linecap="round" stroke-linejoin="round"/>
</svg>
