<svg width="38" height="38" viewBox="0 0 38 38" fill="none" xmlns="http://www.w3.org/2000/svg">
<path d="M13.7495 21.1247C14.0697 20.4854 14.25 19.7638 14.25 19C14.25 18.2362 14.0697 17.5146 13.7495 16.8753M13.7495 21.1247C12.9696 22.6814 11.3596 23.75 9.5 23.75C6.87665 23.75 4.75 21.6234 4.75 19C4.75 16.3766 6.87665 14.25 9.5 14.25C11.3596 14.25 12.9696 15.3186 13.7495 16.8753M13.7495 21.1247L24.2505 26.3753M13.7495 16.8753L24.2505 11.6247M24.2505 11.6247C25.0304 13.1814 26.6404 14.25 28.5 14.25C31.1234 14.25 33.25 12.1234 33.25 9.5C33.25 6.87665 31.1234 4.75 28.5 4.75C25.8766 4.75 23.75 6.87665 23.75 9.5C23.75 10.2638 23.9303 10.9854 24.2505 11.6247ZM24.2505 26.3753C23.9303 27.0146 23.75 27.7362 23.75 28.5C23.75 31.1234 25.8766 33.25 28.5 33.25C31.1234 33.25 33.25 31.1234 33.25 28.5C33.25 25.8766 31.1234 23.75 28.5 23.75C26.6404 23.75 25.0304 24.8186 24.2505 26.3753Z" stroke="#74B805" stroke-width="2.5" stroke-linecap="round" stroke-linejoin="round"/>
</svg>
