<svg width="39" height="39" viewBox="0 0 39 39" fill="none" xmlns="http://www.w3.org/2000/svg">
<rect x="0.5" y="0.5" width="38" height="38" rx="4.5" stroke="#D2D2D2"/>
<g clip-path="url(#clip0_557_86)">
<path d="M19.049 10.9266C19.3483 10.0054 20.6517 10.0054 20.951 10.9266L22.4699 15.6005C22.6038 16.0125 22.9877 16.2915 23.4209 16.2915L28.3354 16.2917C29.3041 16.2917 29.7068 17.5313 28.9232 18.1007L24.9474 20.9895C24.5969 21.2441 24.4503 21.6955 24.5841 22.1075L26.1026 26.7815C26.4019 27.7028 25.3475 28.4689 24.5638 27.8995L20.5878 25.011C20.2373 24.7564 19.7627 24.7564 19.4122 25.011L15.4362 27.8995C14.6525 28.4689 13.5981 27.7028 13.8974 26.7815L15.4159 22.1075C15.5497 21.6955 15.4031 21.2441 15.0526 20.9895L11.0768 18.1007C10.2932 17.5313 10.6959 16.2917 11.6646 16.2917L16.5791 16.2915C17.0123 16.2915 17.3962 16.0125 17.5301 15.6005L19.049 10.9266Z" stroke="#74B805" stroke-width="2"/>
</g>
<defs>
<clipPath id="clip0_557_86">
<rect width="24" height="24" fill="white" transform="translate(8 8)"/>
</clipPath>
</defs>
</svg>
