<svg width="35" height="35" viewBox="0 0 35 35" fill="none" xmlns="http://www.w3.org/2000/svg">
<rect x="0.5" y="0.5" width="34" height="34" rx="17" fill="white" stroke="#D2D2D2"/>
<rect x="7.17969" y="7.17944" width="21.5385" height="21.5385" rx="10.7692" fill="white"/>
<path d="M17 12.2107V23.0441M17 12.2107C16.0268 11.5641 14.7054 11.1667 13.25 11.1667C11.7946 11.1667 10.4732 11.5641 9.5 12.2107V23.0441C10.4732 22.3975 11.7946 22.0001 13.25 22.0001C14.7054 22.0001 16.0268 22.3975 17 23.0441M17 12.2107C17.9732 11.5641 19.2946 11.1667 20.75 11.1667C22.2054 11.1667 23.5268 11.5641 24.5 12.2107V23.0441C23.5268 22.3975 22.2054 22.0001 20.75 22.0001C19.2946 22.0001 17.9732 22.3975 17 23.0441" stroke="black" stroke-width="2" stroke-linecap="round" stroke-linejoin="round"/>
</svg>
